<svg width="25" height="25" viewBox="0 0 25 25" fill="none" xmlns="http://www.w3.org/2000/svg">
<path fill-rule="evenodd" clip-rule="evenodd" d="M16.4105 2.04053C20.0207 2.04053 22.4472 4.36298 22.4472 7.82114V16.6671C22.4472 20.1252 20.0207 22.4487 16.4105 22.4487H8.0758C4.46559 22.4487 2.03906 20.1252 2.03906 16.6671V7.82114C2.03906 4.36298 4.46559 2.04053 8.0758 2.04053H16.4105ZM16.4105 3.57114H8.0758C5.33804 3.57114 3.56967 5.23951 3.56967 7.82114V16.6671C3.56967 19.2487 5.33804 20.9181 8.0758 20.9181H16.4105C19.1482 20.9181 20.9166 19.2487 20.9166 16.6671V7.82114C20.9166 5.23951 19.1482 3.57114 16.4105 3.57114ZM13.1118 7.87828L16.9458 11.6959C16.9744 11.7237 17.0009 11.7538 17.0249 11.7858L16.9526 11.7028C16.9888 11.7384 17.0209 11.7774 17.0488 11.8189C17.061 11.8377 17.0729 11.8572 17.0838 11.8772C17.0928 11.8928 17.101 11.9091 17.1086 11.9257C17.1156 11.9417 17.1223 11.9577 17.1284 11.9739C17.1348 11.9898 17.1403 12.006 17.1452 12.0224C17.1624 12.0801 17.1733 12.1408 17.1766 12.2035C17.1778 12.2173 17.1781 12.231 17.1781 12.2446L17.1748 12.2844L17.1707 12.3484C17.1652 12.389 17.1565 12.4286 17.1449 12.4669C17.1403 12.4832 17.1348 12.4994 17.1287 12.5154C17.1223 12.5316 17.1156 12.5476 17.1084 12.5633C17.101 12.5801 17.0928 12.5964 17.0841 12.6124C17.0729 12.632 17.061 12.6515 17.0484 12.6704C17.0413 12.6815 17.0335 12.6925 17.0253 12.7033C17.0031 12.7325 16.9792 12.76 16.9535 12.7857L16.9526 12.7864L13.1118 16.6109C12.9628 16.7599 12.7669 16.8344 12.572 16.8344C12.3761 16.8344 12.1792 16.7599 12.0302 16.6089C11.7322 16.3089 11.7332 15.8252 12.0322 15.5273L14.5595 13.0099H8.07365C7.65121 13.0099 7.30835 12.6671 7.30835 12.2446C7.30835 11.8222 7.65121 11.4793 8.07365 11.4793H14.5595L12.0322 8.96196C11.7332 8.664 11.7322 8.18032 12.0302 7.88032C12.3281 7.58032 12.8118 7.58032 13.1118 7.87828Z" fill="white"/>
</svg>
