<svg width="24" height="26" viewBox="0 0 24 26" fill="none" xmlns="http://www.w3.org/2000/svg">
<path d="M22.9541 12.3193C23.4463 12.9697 23.7188 13.7666 23.7188 14.5957C23.7188 15.9111 22.9834 17.1562 21.7998 17.8506C21.4951 18.0293 21.1482 18.1234 20.7949 18.123H13.7695L13.9453 21.7236C13.9863 22.5937 13.6787 23.4199 13.0811 24.0498C12.7878 24.3602 12.4339 24.6073 12.0414 24.7756C11.6488 24.9439 11.2259 25.0299 10.7988 25.0283C9.27539 25.0283 7.92773 24.0029 7.52344 22.5351L5.00684 13.4238H4.99805L4.99805 0.884743H18.835C19.1045 0.884743 19.3682 0.937479 19.6113 1.04295C21.0059 1.63767 21.9053 2.99998 21.9053 4.5117C21.9053 4.88084 21.8525 5.24412 21.7471 5.59568C22.2393 6.24607 22.5117 7.04295 22.5117 7.87205C22.5117 8.24119 22.459 8.60447 22.3535 8.95603C22.8457 9.60642 23.1182 10.4033 23.1182 11.2324C23.1123 11.6015 23.0596 11.9678 22.9541 12.3193ZM0.28125 12.4863L0.28125 1.82224C0.28125 1.30369 0.700195 0.884743 1.21875 0.884743H3.12305L3.12305 13.4238H1.21875C0.700195 13.4238 0.28125 13.0049 0.28125 12.4863Z" fill="#F46691"/>
</svg>
