<svg width="18" height="18" viewBox="0 0 18 18" fill="none" xmlns="http://www.w3.org/2000/svg">
<path d="M17.0395 9.6792C17.0995 9.71296 17.1115 9.78452 17.1139 9.81179L17.1145 9.82266L17.0478 14.1264C17.0478 15.8432 15.7177 17.2432 14.0427 17.329L13.8796 17.3332H3.84124C2.14508 17.3332 0.761899 15.9868 0.677107 14.2916L0.672988 14.1264L0.614625 9.82266C0.614625 9.82266 0.614625 9.72139 0.689663 9.6792C0.756363 9.63701 0.839738 9.68764 0.848075 9.69608C2.53225 10.8269 4.55826 11.5779 6.68433 11.8902C6.98448 11.9324 7.28463 11.7383 7.368 11.4345C7.53996 10.7857 8.07099 10.3447 8.72064 10.2921L8.85208 10.2868H8.87709C9.58578 10.2868 10.1777 10.7425 10.3612 11.4345C10.4445 11.7383 10.7447 11.9324 11.0448 11.8902C13.1709 11.5779 15.1969 10.8269 16.8811 9.69608C16.8811 9.69608 16.8978 9.68764 16.9144 9.6792C16.9478 9.66232 16.9978 9.65388 17.0395 9.6792ZM8.86041 11.4935C8.54706 11.4935 8.28275 11.7346 8.24088 12.0413L8.2351 12.1264V13.215C8.2351 13.5695 8.51858 13.848 8.86041 13.848C9.18141 13.848 9.43935 13.614 9.48011 13.302L9.48573 13.215V12.1264C9.48573 11.7805 9.21059 11.4935 8.86041 11.4935ZM9.93595 0.666504C11.1866 0.666504 12.2121 1.62009 12.3705 2.84371H14.0213C15.7722 2.84371 17.1979 4.28674 17.1979 6.05888C17.1979 6.05888 17.1479 6.80909 17.1312 7.85381C17.1295 7.93651 17.0895 8.01752 17.0237 8.06647C16.6226 8.36267 16.2558 8.60739 16.2224 8.62427C14.8384 9.55254 13.2301 10.2057 11.5167 10.5306C11.405 10.5525 11.295 10.4943 11.2383 10.3947C10.758 9.56266 9.86092 9.02089 8.86041 9.02089C7.86658 9.02089 6.96113 9.55676 6.46672 10.3897C6.40919 10.4876 6.3008 10.5441 6.18991 10.523C4.49073 10.1973 2.88243 9.54494 1.50674 8.63271L0.706338 8.07575C0.639638 8.03356 0.59795 7.95761 0.59795 7.87322C0.572938 7.44284 0.53125 6.05888 0.53125 6.05888C0.53125 4.28674 1.95696 2.84371 3.70784 2.84371H5.35033C5.50874 1.62009 6.53425 0.666504 7.78488 0.666504H9.93595ZM9.93595 1.93232H7.78488C7.22626 1.93232 6.75103 2.3205 6.61763 2.84371H11.1032C10.9698 2.3205 10.4946 1.93232 9.93595 1.93232Z" fill="#C5A9FB"/>
</svg>
