<svg width="20" height="20" viewBox="0 0 20 20" fill="none" xmlns="http://www.w3.org/2000/svg">
<path d="M19.9181 5.90309C19.9069 5.06334 19.7497 4.23193 19.4535 3.44606C19.1966 2.78318 18.8043 2.18117 18.3017 1.67849C17.799 1.17581 17.197 0.783514 16.5341 0.526666C15.7583 0.235455 14.9388 0.0779923 14.1103 0.0609825C13.0437 0.0133053 12.7055 0 9.99789 0C7.29027 0 6.94322 7.43489e-08 5.88435 0.0609825C5.05627 0.0781174 4.2371 0.235578 3.46168 0.526666C2.7987 0.783335 2.1966 1.17557 1.6939 1.67827C1.19119 2.18097 0.798959 2.78308 0.542291 3.44606C0.250497 4.22124 0.0933755 5.04059 0.0777161 5.86872C0.030039 6.93647 0.015625 7.27464 0.015625 9.98226C0.015625 12.6899 0.015625 13.0358 0.0777161 14.0958C0.0943477 14.9252 0.250684 15.7434 0.542291 16.5207C0.79939 17.1835 1.19192 17.7853 1.69479 18.2878C2.19766 18.7903 2.79982 19.1824 3.46279 19.439C4.23609 19.7419 5.0554 19.9106 5.88546 19.9379C6.9532 19.9856 7.29138 20 9.99899 20C12.7066 20 13.0537 20 14.1125 19.9379C14.941 19.9216 15.7606 19.7645 16.5363 19.4733C17.199 19.2162 17.8009 18.8238 18.3035 18.3211C18.8062 17.8185 19.1986 17.2166 19.4557 16.5539C19.7473 15.7778 19.9036 14.9595 19.9203 14.1291C19.9679 13.0624 19.9824 12.7242 19.9824 10.0155C19.9801 7.30791 19.9801 6.96419 19.9181 5.90309ZM9.99123 15.1026C7.15943 15.1026 4.86539 12.8085 4.86539 9.97672C4.86539 7.14492 7.15943 4.85087 9.99123 4.85087C11.3507 4.85087 12.6545 5.39091 13.6158 6.3522C14.577 7.31348 15.1171 8.61726 15.1171 9.97672C15.1171 11.3362 14.577 12.64 13.6158 13.6012C12.6545 14.5625 11.3507 15.1026 9.99123 15.1026ZM15.3211 5.85653C15.1641 5.85667 15.0086 5.82586 14.8635 5.76584C14.7184 5.70582 14.5866 5.61779 14.4756 5.50677C14.3646 5.39575 14.2765 5.26393 14.2165 5.11885C14.1565 4.97377 14.1257 4.81828 14.1258 4.66127C14.1258 4.50438 14.1567 4.34903 14.2168 4.20408C14.2768 4.05913 14.3648 3.92743 14.4758 3.81649C14.5867 3.70555 14.7184 3.61755 14.8633 3.55751C15.0083 3.49747 15.1636 3.46657 15.3205 3.46657C15.4774 3.46657 15.6328 3.49747 15.7777 3.55751C15.9227 3.61755 16.0544 3.70555 16.1653 3.81649C16.2763 3.92743 16.3643 4.05913 16.4243 4.20408C16.4843 4.34903 16.5152 4.50438 16.5152 4.66127C16.5152 5.3221 15.9808 5.85653 15.3211 5.85653Z" fill="#F78AAA"/>
<path d="M9.9937 13.3062C11.8326 13.3062 13.3233 11.8155 13.3233 9.97661C13.3233 8.1377 11.8326 6.64697 9.9937 6.64697C8.15479 6.64697 6.66406 8.1377 6.66406 9.97661C6.66406 11.8155 8.15479 13.3062 9.9937 13.3062Z" fill="#F78AAA"/>
</svg>
