<svg width="21" height="20" viewBox="0 0 21 20" fill="none" xmlns="http://www.w3.org/2000/svg">
<path d="M14.0501 0H7.91088C2.30855 0 0.980469 1.32808 0.980469 6.93041V13.0696C0.980469 18.6719 2.30855 20 7.91088 20H14.0501C19.6524 20 20.9805 18.6719 20.9805 13.0696V6.93041C20.9805 1.32808 19.6393 0 14.0501 0ZM17.1262 14.2671H15.6744C15.1244 14.2671 14.955 13.8308 13.9657 12.8283C13.1063 11.9953 12.7257 11.8846 12.5139 11.8846C12.2145 11.8846 12.1295 11.969 12.1295 12.3796V13.6914C12.1295 14.0433 12.0189 14.2546 11.0877 14.2546C9.5477 14.2546 7.839 13.3233 6.64092 11.5884C4.8341 9.04597 4.33974 7.14165 4.33974 6.74791C4.33974 6.53605 4.42411 6.33793 4.83097 6.33793H6.28593C6.65404 6.33793 6.79404 6.5073 6.93716 6.90103C7.65651 8.97785 8.8546 10.7972 9.34896 10.7972C9.53145 10.7972 9.61582 10.7128 9.61582 10.2472V8.10225C9.5602 7.1129 9.03959 7.02791 9.03959 6.67667C9.03959 6.5073 9.17959 6.33793 9.40396 6.33793H11.692C12.0014 6.33793 12.1151 6.5073 12.1151 6.87166V9.76532C12.1151 10.0778 12.2551 10.1884 12.3395 10.1884C12.522 10.1884 12.6782 10.0778 13.0163 9.73907C14.0613 8.56723 14.81 6.76041 14.81 6.76041C14.9075 6.54855 15.0769 6.35043 15.445 6.35043H16.9C17.3362 6.35043 17.4337 6.5748 17.3362 6.88729C17.1537 7.73351 15.3731 10.2466 15.3731 10.2466C15.22 10.5003 15.1613 10.6109 15.3731 10.894C15.5294 11.1059 16.0375 11.5453 16.3756 11.939C16.9975 12.6452 17.4756 13.2377 17.6031 13.6477C17.7462 14.0546 17.535 14.2664 17.1243 14.2664L17.1262 14.2671Z" fill="#C5A9FB"/>
</svg>
