<svg width="20" height="21" viewBox="0 0 20 21" fill="none" xmlns="http://www.w3.org/2000/svg">
<path d="M18.7097 9.66475C17.9981 9.66475 17.4194 10.2435 17.4194 10.9551C17.4194 11.1019 17.4494 11.2409 17.4945 11.3725L16.1268 12.1931L12.5806 10.1248V5.97895L16.4516 3.72088V0.955078H15.8065V3.35056L12.2581 5.42056L8.70968 3.35056V0.955078H8.06452V3.35056L4.52194 5.41701L2.53645 4.17605C2.56258 4.07379 2.58065 3.96863 2.58065 3.8583C2.58065 3.14669 2.00194 2.56798 1.29032 2.56798C0.57871 2.56798 0 3.14669 0 3.8583C0 4.56992 0.57871 5.14863 1.29032 5.14863C1.65903 5.14863 1.99 4.99121 2.22548 4.7425L4.19355 5.9725V10.1248L0.482581 12.2893L0.807742 12.847L4.51613 10.6831L6.29032 11.718L8.06452 12.7528V16.8986L4.81645 18.7931C4.58065 18.5373 4.24581 18.3744 3.87097 18.3744C3.15935 18.3744 2.58065 18.9531 2.58065 19.6648C2.58065 20.3764 3.15935 20.9551 3.87097 20.9551C4.58258 20.9551 5.16129 20.3764 5.16129 19.6648C5.16129 19.5602 5.14548 19.4599 5.12194 19.3625L8.3871 17.4577L11.9355 19.5273V20.9551H12.5806V19.5273L14.1435 18.6154L16.1306 17.4564L18.2271 18.6544L18.5471 18.0944L16.4516 16.897V12.7506L17.851 11.9109C18.0797 12.1167 18.3787 12.2454 18.7097 12.2454C19.4213 12.2454 20 11.6667 20 10.9551C20 10.2435 19.4213 9.66475 18.7097 9.66475ZM1.29032 4.50347C0.934516 4.50347 0.645161 4.21411 0.645161 3.8583C0.645161 3.5025 0.934516 3.21314 1.29032 3.21314C1.64613 3.21314 1.93548 3.5025 1.93548 3.8583C1.93548 4.21411 1.64613 4.50347 1.29032 4.50347ZM3.87097 20.3099C3.51516 20.3099 3.22581 20.0206 3.22581 19.6648C3.22581 19.3089 3.51516 19.0196 3.87097 19.0196C4.22677 19.0196 4.51613 19.3089 4.51613 19.6648C4.51613 20.0206 4.22677 20.3099 3.87097 20.3099ZM6.6129 11.1596L4.83871 10.1248V5.97895L8.3871 3.90895L11.9355 5.97895V10.1248L10.1613 11.1596L8.3871 12.1944L6.6129 11.1596ZM15.8065 16.8989L13.8165 18.0599L12.2581 18.9689L8.70968 16.8989V12.7531L10.4839 11.7183L12.2581 10.6835L15.8065 12.7535V16.8989ZM18.7097 11.6002C18.3539 11.6002 18.0645 11.3109 18.0645 10.9551C18.0645 10.5993 18.3539 10.3099 18.7097 10.3099C19.0655 10.3099 19.3548 10.5993 19.3548 10.9551C19.3548 11.3109 19.0655 11.6002 18.7097 11.6002Z" fill="#FFDB5E"/>
</svg>
