<svg width="1570" height="1151" viewBox="0 0 1570 1151" fill="none" xmlns="http://www.w3.org/2000/svg">
<path fill-rule="evenodd" clip-rule="evenodd" d="M146.935 10.8079C143.097 4.29419 136.238 0 128.677 0H99.375H19.875C8.82931 0 -0.125 8.95437 -0.125 20.0001V2991C-0.125 3002.05 8.82926 3011 19.875 3011H1549.88C1560.92 3011 1569.88 3002.05 1569.88 2991V20C1569.88 8.95431 1560.92 0 1549.88 0H294.875H247.073C239.512 0 232.653 4.29419 228.815 10.8079C220.735 24.5198 210.602 38.4493 202.439 49.0093C194.974 58.6659 180.776 58.6659 173.311 49.0092C165.148 38.4493 155.015 24.5198 146.935 10.8079Z" fill="white" fill-opacity="0.7"/>
</svg>
