<svg width="21" height="20" viewBox="0 0 21 20" fill="none" xmlns="http://www.w3.org/2000/svg">
<path d="M10.3945 0C4.87034 0 0.394531 4.47581 0.394531 10C0.394531 15.5242 4.87034 20 10.3945 20C15.9187 20 20.3945 15.5242 20.3945 10C20.3945 4.47581 15.9187 0 10.3945 0ZM15.3058 6.85081L13.6647 14.5847C13.5437 15.1331 13.2171 15.2661 12.7615 15.0081L10.2615 13.1653L9.05582 14.3266C8.92276 14.4597 8.80985 14.5726 8.55179 14.5726L8.72921 12.0282L13.3623 7.84274C13.5639 7.66532 13.3179 7.56452 13.0518 7.74194L7.32598 11.3468L4.85824 10.5766C4.32195 10.4073 4.30985 10.0403 4.97114 9.78226L14.6123 6.06452C15.0599 5.90323 15.451 6.17339 15.3058 6.85081V6.85081Z" fill="white"/>
</svg>
