<svg width="21" height="20" viewBox="0 0 21 20" fill="none" xmlns="http://www.w3.org/2000/svg">
<path d="M13.9309 0H7.79174C2.18941 0 0.861328 1.32808 0.861328 6.93041V13.0696C0.861328 18.6719 2.18941 20 7.79174 20H13.9309C19.5332 20 20.8613 18.6719 20.8613 13.0696V6.93041C20.8613 1.32808 19.5201 0 13.9309 0ZM17.0071 14.2671H15.5552C15.0053 14.2671 14.8359 13.8308 13.8465 12.8283C12.9872 11.9953 12.6066 11.8846 12.3947 11.8846C12.0954 11.8846 12.0104 11.969 12.0104 12.3796V13.6914C12.0104 14.0433 11.8997 14.2546 10.9685 14.2546C9.42856 14.2546 7.71986 13.3233 6.52178 11.5884C4.71496 9.04597 4.2206 7.14165 4.2206 6.74791C4.2206 6.53605 4.30497 6.33793 4.71183 6.33793H6.16679C6.5349 6.33793 6.6749 6.5073 6.81802 6.90103C7.53737 8.97785 8.73546 10.7972 9.22982 10.7972C9.41231 10.7972 9.49668 10.7128 9.49668 10.2472V8.10225C9.44106 7.1129 8.92045 7.02791 8.92045 6.67667C8.92045 6.5073 9.06045 6.33793 9.28482 6.33793H11.5729C11.8822 6.33793 11.996 6.5073 11.996 6.87166V9.76532C11.996 10.0778 12.136 10.1884 12.2203 10.1884C12.4028 10.1884 12.5591 10.0778 12.8972 9.73907C13.9422 8.56723 14.6909 6.76041 14.6909 6.76041C14.7884 6.54855 14.9578 6.35043 15.3259 6.35043H16.7808C17.2171 6.35043 17.3146 6.5748 17.2171 6.88729C17.0346 7.73351 15.254 10.2466 15.254 10.2466C15.1009 10.5003 15.0421 10.6109 15.254 10.894C15.4102 11.1059 15.9184 11.5453 16.2565 11.939C16.8783 12.6452 17.3564 13.2377 17.4839 13.6477C17.6271 14.0546 17.4158 14.2664 17.0052 14.2664L17.0071 14.2671Z" fill="#6E569C"/>
</svg>
